<svg width="219" height="238" viewBox="0 0 219 238" fill="none" xmlns="http://www.w3.org/2000/svg">
<line x1="70.5" x2="70.5" y2="238" stroke="white"/>
<line x1="143.5" x2="143.5" y2="238" stroke="white"/>
<line y1="76.5" x2="219" y2="76.5" stroke="white"/>
<line y1="157.5" x2="219" y2="157.5" stroke="white"/>
<path d="M46.1 57H41L31.55 41.5L21.95 57H17.2L29.05 38.4L17.95 21.3H22.95L31.7 35.3L40.5 21.3H45.25L34.2 38.3L46.1 57Z" fill="white"/>
<path d="M124 118.1C124 121.8 123.367 125.033 122.1 127.8C120.867 130.533 119.033 132.667 116.6 134.2C114.167 135.733 111.15 136.5 107.55 136.5C103.85 136.5 100.767 135.733 98.3 134.2C95.8667 132.667 94.05 130.517 92.85 127.75C91.65 124.983 91.05 121.75 91.05 118.05C91.05 114.383 91.65 111.183 92.85 108.45C94.05 105.717 95.8667 103.583 98.3 102.05C100.767 100.517 103.867 99.75 107.6 99.75C111.167 99.75 114.167 100.517 116.6 102.05C119.033 103.55 120.867 105.683 122.1 108.45C123.367 111.183 124 114.4 124 118.1ZM95.8 118.1C95.8 122.6 96.75 126.15 98.65 128.75C100.55 131.317 103.517 132.6 107.55 132.6C111.617 132.6 114.583 131.317 116.45 128.75C118.317 126.15 119.25 122.6 119.25 118.1C119.25 113.6 118.317 110.083 116.45 107.55C114.583 104.983 111.633 103.7 107.6 103.7C103.567 103.7 100.583 104.983 98.65 107.55C96.75 110.083 95.8 113.6 95.8 118.1Z" fill="white"/>
</svg>
